<svg xmlns="http://www.w3.org/2000/svg" viewBox="0 0 32 32">
  <defs>
    <mask id="artwork" x="0" y="0" width="32" height="32" maskUnits="userSpaceOnUse" style="mask-type: luminance">
      <g fill="none" stroke-width="2" stroke-linecap="round" stroke-linejoin="round">
        <path d="m8 5 3 3-3 3-3-3-2 2 4 5 4-1 13 13a3 3 0 0 0 4-4L15 10l1-4-5-4Z" fill="#fff" stroke="none" />
        <path d="M28 4a8 8 0 0 1-10 10L8 27a3.5 3.5 0 0 1-5-5l13-10A8 8 0 0 1 26 2l-5 5 4 3Z" fill="#fff" stroke="#000" stroke-width="1" />
        <circle cx="6" cy="24" r="1.5" fill="#000" stroke="none" />
      </g>
    </mask>
  </defs>
  <rect width="32" height="32" fill="#000" mask="url(#artwork)"/>
</svg>
